<?xml version="1.0" encoding="utf-8"?>
<!-- Generator: Adobe Illustrator 22.0.1, SVG Export Plug-In . SVG Version: 6.00 Build 0)  -->
<svg version="1.1" id="Слой_1" xmlns="http://www.w3.org/2000/svg" xmlns:xlink="http://www.w3.org/1999/xlink" x="0px" y="0px"
	 viewBox="0 0 3425 968" style="enable-background:new 0 0 3425 968;" xml:space="preserve">
<style type="text/css">
	.st0{fill:url(#SVGID_1_);}
	.st1{fill:#FFFFFF;}
</style>
<g>
	
		<linearGradient id="SVGID_1_" gradientUnits="userSpaceOnUse" x1="34.8362" y1="486.2999" x2="3390.1636" y2="486.2999" gradientTransform="matrix(1 0 0 -1 0 970)">
		<stop  offset="0" style="stop-color:#5991C1"/>
		<stop  offset="1" style="stop-color:#4C75A2"/>
	</linearGradient>
	<path class="st0" d="M177.7,930.9c-78.9,0-142.9-65.1-142.9-145.2V181.6c0-80.1,64-145.2,142.9-145.2h3069.5
		c78.9,0,142.9,65.1,142.9,145.2v604.1c0,80.1-64,145.2-142.9,145.2H177.7z"/>
	<path class="st1" d="M3247.5,71.9c59.7,0,108.1,49.2,108.1,109.7v604.1c0,60.5-48.4,109.7-108.1,109.7H177.7
		c-59.7,0-108.1-49.2-108.1-109.7V181.6c0-60.5,48.4-109.7,108.1-109.7H3247.5 M3247.5,1H177.7C79.5,1,0,81.9,0,181.6v604.1
		c0,99.7,79.7,180.6,177.7,180.6h3069.5c98.3,0,177.7-80.9,177.7-180.6V181.6C3425.2,81.9,3345.5,1,3247.5,1L3247.5,1z"/>
</g>
<path class="st1" d="M1050.1,668.3V349.2H1251v62.4h-122.2v72.4h116.4v62.4h-116.4v122.2h-78.6V668.3z"/>
<path class="st1" d="M1404.3,673.1c-80.9,0-125.2-53.2-125.2-122.2s44-122.2,125.2-122.2c80.9,0,125.2,53.2,125.2,122.2
	C1529.2,619.9,1485.2,673.1,1404.3,673.1z M1404.3,485.4c-37.3,0-48.4,32.5-48.4,65.7s11.1,65.7,48.4,65.7
	c37.3,0,48.4-32.5,48.4-65.7C1452.7,517.9,1441.6,485.4,1404.3,485.4z"/>
<path class="st1" d="M1643.8,596.6c0,11.9,4.4,19.2,18.8,19.2c5.2,0,10-0.4,16.3-1.5l2.3,52.8c-12.9,3.8-29.6,6.3-46.9,6.3
	c-51.3,0-67.2-34-67.2-68V330.2h76.8V596.6z"/>
<path class="st1" d="M1788.1,596.6c0,11.9,4.4,19.2,18.8,19.2c5.2,0,10-0.4,16.3-1.5l2.3,52.8c-12.9,3.8-29.6,6.3-46.9,6.3
	c-51.3,0-67.2-34-67.2-68V330.2h76.8L1788.1,596.6L1788.1,596.6z"/>
<path class="st1" d="M1967.7,673.1c-80.9,0-125.2-53.2-125.2-122.2s44-122.2,125.2-122.2c80.9,0,125.2,53.2,125.2,122.2
	S2048.7,673.1,1967.7,673.1z M1967.7,485.4c-37.3,0-48.4,32.5-48.4,65.7s11.1,65.7,48.4,65.7c37.3,0,48.4-32.5,48.4-65.7
	C2016.1,517.9,2005.1,485.4,1967.7,485.4z"/>
<path class="st1" d="M2348.6,668.3l-51.7-150l-51.7,150h-72l-66.5-234.9h73.4l33.2,141.4l48-141.4h72l48,141.4l33.2-141.4h73.2
	L2421,668.3H2348.6z"/>
<path class="st1" d="M2814.4,349.2h78.6v204.2c0,75.3-50.3,120.8-135.2,120.8s-135.2-45.5-135.2-120.8V349.2h78.6v206.5
	c0,35.9,19.6,56.1,56.5,56.1c36.9,0,56.5-20.2,56.5-56.1L2814.4,349.2L2814.4,349.2z"/>
<path class="st1" d="M3017.2,673.1c-25.4,0-55.5-4.8-78.6-14.4l10.6-53.2c19.6,8.1,46.5,12.5,64.2,12.5c18.8,0,34.4-4.8,34.4-17.7
	c0-11.5-11.9-14-36.5-22.5c-39.8-14.4-69.9-33.2-69.9-74.3c0-51.3,37.8-74.7,93.5-74.7c29.2,0,53.2,4.8,75.3,17.7l-10.6,50.3
	c-17.3-7.7-36.5-12.9-57.6-12.9c-18.1,0-28.8,2.3-28.8,13.4c0,10.6,13.4,14,31.7,20.7c28.4,10.6,74.3,27.7,74.3,73.8
	C3119.2,644.3,3077.1,673.1,3017.2,673.1z"/>
<path class="st1" d="M769.5,269.9c-1.9-5.6-4.2-7.3-7.9-8.6c-7.9-2.9-21.3,1.5-21.3,1.5S266,433.2,238.8,452.2
	c-5.8,4.2-7.7,6.5-8.8,9.2c-4.6,13.4,10,19.4,10,19.4l122.2,39.8c0,0,4.6,0.6,6.3-0.4c27.7-17.5,279.9-176.7,294.3-182.1
	c2.3-0.6,4,0,3.5,1.7c-5.8,20.4-224.7,215.1-224.7,215.1s-0.8,1-1.5,2.3l-0.2-0.2l-11.5,121.2c0,0-4.8,37.1,32.3,0
	c26.3-26.3,51.5-48.2,64.2-58.8c42.1,29,87.2,61.1,106.8,78c9.8,8.3,17.9,9.8,24.8,9.6c18.6-0.6,23.8-21.1,23.8-21.1
	s86.4-347.9,89.3-394.7c0.2-4.6,0.6-7.5,0.6-10.6C770.6,276.4,770.4,272,769.5,269.9z"/>
</svg>
