<?xml version="1.0" encoding="utf-8"?>
<!-- Generator: Adobe Illustrator 22.0.1, SVG Export Plug-In . SVG Version: 6.00 Build 0)  -->
<svg version="1.1" id="Слой_1" xmlns="http://www.w3.org/2000/svg" xmlns:xlink="http://www.w3.org/1999/xlink" x="0px" y="0px"
	 viewBox="0 0 2000 3000" style="enable-background:new 0 0 2000 3000;" xml:space="preserve">
<style type="text/css">
	.st0{fill:url(#SVGID_1_);}
	.st1{fill:#FFFFFF;}
</style>
<g>
	<linearGradient id="SVGID_1_" gradientUnits="userSpaceOnUse" x1="177.7135" y1="1504.3904" x2="1786.2872" y2="1504.3904">
		<stop  offset="0" style="stop-color:#5991C1"/>
		<stop  offset="1" style="stop-color:#4C75A2"/>
	</linearGradient>
	<path class="st0" d="M246.2,1718.8c-37.8,0-68.5-31.2-68.5-69.6v-289.6c0-38.4,30.7-69.6,68.5-69.6h1471.5
		c37.8,0,68.5,31.2,68.5,69.6v289.6c0,38.4-30.7,69.6-68.5,69.6H246.2z"/>
	<path class="st1" d="M1717.8,1307c28.6,0,51.8,23.6,51.8,52.6v289.6c0,29-23.2,52.6-51.8,52.6H246.2c-28.6,0-51.8-23.6-51.8-52.6
		v-289.6c0-29,23.2-52.6,51.8-52.6H1717.8 M1717.8,1273H246.2c-47.1,0-85.2,38.8-85.2,86.6v289.6c0,47.8,38.2,86.6,85.2,86.6h1471.5
		c47.1,0,85.2-38.8,85.2-86.6v-289.6C1803,1311.8,1764.8,1273,1717.8,1273L1717.8,1273z"/>
</g>
<path class="st1" d="M664.4,1592.9v-153h96.3v29.9h-58.6v34.7h55.8v29.9h-55.8v58.6H664.4z"/>
<path class="st1" d="M834.2,1595.2c-38.8,0-60-25.5-60-58.6c0-33.1,21.1-58.6,60-58.6c38.8,0,60,25.5,60,58.6
	C894.1,1569.7,873,1595.2,834.2,1595.2z M834.2,1505.2c-17.9,0-23.2,15.6-23.2,31.5c0,15.9,5.3,31.5,23.2,31.5
	c17.9,0,23.2-15.6,23.2-31.5C857.4,1520.8,852.1,1505.2,834.2,1505.2z"/>
<path class="st1" d="M949,1558.5c0,5.7,2.1,9.2,9,9.2c2.5,0,4.8-0.2,7.8-0.7l1.1,25.3c-6.2,1.8-14.2,3-22.5,3
	c-24.6,0-32.2-16.3-32.2-32.6v-131.9H949V1558.5z"/>
<path class="st1" d="M1018.2,1558.5c0,5.7,2.1,9.2,9,9.2c2.5,0,4.8-0.2,7.8-0.7l1.1,25.3c-6.2,1.8-14.2,3-22.5,3
	c-24.6,0-32.2-16.3-32.2-32.6v-131.9h36.8V1558.5z"/>
<path class="st1" d="M1104.3,1595.2c-38.8,0-60-25.5-60-58.6c0-33.1,21.1-58.6,60-58.6c38.8,0,60,25.5,60,58.6
	C1164.3,1569.7,1143.1,1595.2,1104.3,1595.2z M1104.3,1505.2c-17.9,0-23.2,15.6-23.2,31.5c0,15.9,5.3,31.5,23.2,31.5
	c17.9,0,23.2-15.6,23.2-31.5C1127.5,1520.8,1122.2,1505.2,1104.3,1505.2z"/>
<path class="st1" d="M1286.9,1592.9l-24.8-71.9l-24.8,71.9h-34.5l-31.9-112.6h35.2l15.9,67.8l23-67.8h34.5l23,67.8l15.9-67.8h35.1
	l-31.9,112.6H1286.9z"/>
<path class="st1" d="M1510.2,1439.9h37.7v97.9c0,36.1-24.1,57.9-64.8,57.9c-40.7,0-64.8-21.8-64.8-57.9v-97.9h37.7v99
	c0,17.2,9.4,26.9,27.1,26.9s27.1-9.7,27.1-26.9V1439.9z"/>
<path class="st1" d="M1607.4,1595.2c-12.2,0-26.6-2.3-37.7-6.9l5.1-25.5c9.4,3.9,22.3,6,30.8,6c9,0,16.5-2.3,16.5-8.5
	c0-5.5-5.7-6.7-17.5-10.8c-19.1-6.9-33.5-15.9-33.5-35.6c0-24.6,18.1-35.8,44.8-35.8c14,0,25.5,2.3,36.1,8.5l-5.1,24.1
	c-8.3-3.7-17.5-6.2-27.6-6.2c-8.7,0-13.8,1.1-13.8,6.4c0,5.1,6.4,6.7,15.2,9.9c13.6,5.1,35.6,13.3,35.6,35.4
	C1656.3,1581.4,1636.1,1595.2,1607.4,1595.2z"/>
<path class="st1" d="M529.9,1401.9c-0.9-2.7-2-3.5-3.8-4.1c-3.8-1.4-10.2,0.7-10.2,0.7s-227.4,81.7-240.4,90.8
	c-2.8,2-3.7,3.1-4.2,4.4c-2.2,6.4,4.8,9.3,4.8,9.3l58.6,19.1c0,0,2.2,0.3,3-0.2c13.3-8.4,134.2-84.7,141.1-87.3
	c1.1-0.3,1.9,0,1.7,0.8c-2.8,9.8-107.7,103.1-107.7,103.1s-0.4,0.5-0.7,1.1l-0.1-0.1l-5.5,58.1c0,0-2.3,17.8,15.5,0
	c12.6-12.6,24.7-23.1,30.8-28.2c20.2,13.9,41.8,29.3,51.2,37.4c4.7,4,8.6,4.7,11.9,4.6c8.9-0.3,11.4-10.1,11.4-10.1
	s41.4-166.8,42.8-189.2c0.1-2.2,0.3-3.6,0.3-5.1C530.4,1405,530.3,1402.9,529.9,1401.9z"/>
</svg>
